<svg width="48" height="48" viewBox="0 0 48 48" fill="none" xmlns="http://www.w3.org/2000/svg">
<g id="healthicons:alcohol-outline">
<g id="Group">
<path id="Vector" fill-rule="evenodd" clip-rule="evenodd" d="M18 6H16V17.215C16.0002 17.8884 15.7532 18.5385 15.306 19.042C13.1766 21.4374 12.0002 24.5309 12 27.736V41.457C12 41.757 12.243 42 12.543 42H21.457C21.757 42 22 41.757 22 41.457V27.736C22 24.531 20.824 21.437 18.695 19.042C18.2474 18.5387 18.0001 17.8886 18 17.215V6ZM18 4C18.5304 4 19.0391 4.21071 19.4142 4.58579C19.7893 4.96086 20 5.46957 20 6V17.215C20 17.399 20.067 17.575 20.19 17.713C22.6446 20.4747 24.0003 24.0412 24 27.736V41.457C24 42.1314 23.7321 42.7783 23.2552 43.2552C22.7783 43.7321 22.1314 44 21.457 44H12.543C12.209 44 11.8784 43.9342 11.5698 43.8064C11.2613 43.6786 10.981 43.4913 10.7448 43.2552C10.5087 43.019 10.3214 42.7387 10.1936 42.4302C10.0658 42.1216 10 41.791 10 41.457V27.736C10.0001 24.0412 11.3558 20.4749 13.81 17.713C13.9322 17.5759 13.9998 17.3987 14 17.215V6C14 5.46957 14.2107 4.96086 14.5858 4.58579C14.9609 4.21071 15.4696 4 16 4H18Z" fill="#A82542"/>
<path id="Vector_2" fill-rule="evenodd" clip-rule="evenodd" d="M22 30H12V36H22V30ZM10 28V38H24V28H10ZM28.999 18L28.176 25.748C28.1184 26.2846 28.1743 26.8274 28.3402 27.341C28.5061 27.8546 28.7782 28.3275 29.1389 28.729C29.4996 29.1305 29.9407 29.4516 30.4337 29.6714C30.9266 29.8912 31.4603 30.0048 32 30.0048C32.5397 30.0048 33.0734 29.8912 33.5663 29.6714C34.0593 29.4516 34.5004 29.1305 34.8611 28.729C35.2218 28.3275 35.4939 27.8546 35.6598 27.341C35.8257 26.8274 35.8816 26.2846 35.824 25.748L35.001 18H28.999ZM36.8 16H27.2L26.187 25.536C26.1 26.3514 26.1855 27.176 26.438 27.9562C26.6905 28.7364 27.1043 29.4547 27.6525 30.0646C28.2007 30.6744 28.8711 31.1621 29.6201 31.4959C30.3691 31.8298 31.18 32.0023 32 32.0023C32.82 32.0023 33.6309 31.8298 34.3799 31.4959C35.1289 31.1621 35.7993 30.6744 36.3475 30.0646C36.8957 29.4547 37.3095 28.7364 37.562 27.9562C37.8145 27.176 37.9 26.3514 37.813 25.536L36.8 16Z" fill="#A82542"/>
<path id="Vector_3" fill-rule="evenodd" clip-rule="evenodd" d="M31 43V31H33V43H31Z" fill="#A82542"/>
<path id="Vector_4" fill-rule="evenodd" clip-rule="evenodd" d="M27 43C27 42.7348 27.1054 42.4804 27.2929 42.2929C27.4804 42.1054 27.7348 42 28 42H36C36.2652 42 36.5196 42.1054 36.7071 42.2929C36.8946 42.4804 37 42.7348 37 43C37 43.2652 36.8946 43.5196 36.7071 43.7071C36.5196 43.8946 36.2652 44 36 44H28C27.7348 44 27.4804 43.8946 27.2929 43.7071C27.1054 43.5196 27 43.2652 27 43ZM36.5 26H27.5V24H36.5V26Z" fill="#A82542"/>
</g>
</g>
</svg>
