<svg width="49" height="48" viewBox="0 0 49 48" fill="none" xmlns="http://www.w3.org/2000/svg">
<g id="mingcute:bus-2-line" clip-path="url(#clip0_175_295)">
<g id="Group">
<path id="Vector" fill-rule="evenodd" clip-rule="evenodd" d="M38.36 10C39.2802 9.99985 40.1881 10.2114 41.0135 10.6181C41.8388 11.0249 42.5596 11.6161 43.12 12.346L43.352 12.672L45.492 15.882C46.0659 16.7424 46.4076 17.7366 46.484 18.768L46.5 19.212V32C46.5003 33.0092 46.1192 33.9811 45.433 34.7211C44.7468 35.4611 43.8063 35.9143 42.8 35.99L42.5 36H42.16C41.7568 37.1406 41.0183 38.1327 40.0415 38.8462C39.0646 39.5598 37.8949 39.9615 36.6857 39.9987C35.4765 40.0359 34.2843 39.7069 33.2655 39.0547C32.2466 38.4025 31.4485 37.4576 30.976 36.344L30.84 36H18.158C17.7544 37.1399 17.0159 38.1314 16.0393 38.8445C15.0626 39.5575 13.8933 39.959 12.6846 39.9962C11.4759 40.0333 10.2842 39.7045 9.26556 39.0529C8.24691 38.4012 7.44887 37.457 6.976 36.344L6.84 36H6.5C5.49085 36.0003 4.51887 35.6192 3.7789 34.933C3.03894 34.2468 2.58569 33.3063 2.51 32.3L2.5 32V16C2.49991 14.4696 3.08465 12.997 4.13457 11.8835C5.18448 10.77 6.62021 10.0998 8.148 10.01L8.5 10H38.36ZM36.5 32C35.9696 32 35.4609 32.2107 35.0858 32.5858C34.7107 32.9609 34.5 33.4696 34.5 34C34.5 34.5304 34.7107 35.0391 35.0858 35.4142C35.4609 35.7893 35.9696 36 36.5 36C37.0304 36 37.5391 35.7893 37.9142 35.4142C38.2893 35.0391 38.5 34.5304 38.5 34C38.5 33.4696 38.2893 32.9609 37.9142 32.5858C37.5391 32.2107 37.0304 32 36.5 32ZM12.5 32C11.9696 32 11.4609 32.2107 11.0858 32.5858C10.7107 32.9609 10.5 33.4696 10.5 34C10.5 34.5304 10.7107 35.0391 11.0858 35.4142C11.4609 35.7893 11.9696 36 12.5 36C13.0304 36 13.5391 35.7893 13.9142 35.4142C14.2893 35.0391 14.5 34.5304 14.5 34C14.5 33.4696 14.2893 32.9609 13.9142 32.5858C13.5391 32.2107 13.0304 32 12.5 32ZM33.036 24H6.5V32H6.84C7.2532 30.8289 8.01948 29.8149 9.0332 29.0976C10.0469 28.3803 11.2582 27.9951 12.5 27.9951C13.7418 27.9951 14.9531 28.3803 15.9668 29.0976C16.9805 29.8149 17.7468 30.8289 18.16 32H30.84C31.2532 30.8289 32.0195 29.8149 33.0332 29.0976C34.0469 28.3803 35.2582 27.9951 36.5 27.9951C37.7418 27.9951 38.9531 28.3803 39.9668 29.0976C40.9805 29.8149 41.7468 30.8289 42.16 32H42.5V26H36.5C35.7979 26 35.1081 25.8151 34.5001 25.4641C33.892 25.113 33.3871 24.6081 33.036 24ZM38.36 14H36.5V22H42.5V19.212C42.5001 18.8169 42.3832 18.4307 42.164 18.102L40.024 14.89C39.8413 14.6162 39.5938 14.3917 39.3036 14.2364C39.0133 14.0812 38.6892 14 38.36 14ZM12.5 14H8.5C8.01013 14.0001 7.53733 14.1799 7.17126 14.5054C6.80519 14.8309 6.57131 15.2795 6.514 15.766L6.5 16V20H12.5V14ZM22.5 14H16.5V20H22.5V14ZM32.5 14H26.5V20H32.5V14Z" fill="#A82542"/>
</g>
</g>
<defs>
<clipPath id="clip0_175_295">
<rect width="48" height="48" fill="white" transform="translate(0.5)"/>
</clipPath>
</defs>
</svg>
