<svg width="48" height="48" viewBox="0 0 48 48" fill="none" xmlns="http://www.w3.org/2000/svg">
<g id="fluent-emoji-high-contrast:rose">
<path id="Vector" d="M31.08 5.271V3.81C31.08 3.39 30.75 3.06 30.33 3.06H29.025C26.67 3.06 24.66 4.47 23.745 6.48C23.3028 5.44633 22.5666 4.56539 21.6279 3.94668C20.6891 3.32797 19.5893 2.99877 18.465 3H17.175C16.74 3 16.395 3.345 16.395 3.765V5.25H15.177C12.8745 5.25 11.5995 7.6215 12.507 9.546C13.053 10.701 13.5 12.006 13.5 13.5C13.5 14.778 13.2015 15.675 12.8295 16.767L12.8175 16.803C12.4425 17.907 12 19.2045 12 21C12 23.049 12.408 25.4295 14.349 27.2505C16.044 28.839 18.669 29.775 22.5 29.9655V37.44L20.475 38.445C20.07 38.64 20.07 39.225 20.475 39.42L22.5 40.425V45H28.3005C33.2145 45 37.245 41.1825 37.5 36.48C37.5048 36.4183 37.4967 36.3562 37.4762 36.2978C37.4557 36.2394 37.4232 36.1859 37.3808 36.1408C37.3385 36.0956 37.2872 36.0598 37.2303 36.0355C37.1733 36.0113 37.1119 35.9992 37.05 36L31.791 36.015C30.5628 36.0285 29.3547 36.3283 28.2626 36.8905C27.1705 37.4526 26.2246 38.2617 25.5 39.2535V33L27.51 32.025C27.915 31.83 27.915 31.245 27.51 31.05L25.5 30.045V29.964C29.3325 29.775 31.9575 28.839 33.651 27.2505C35.592 25.4295 36 23.0505 36 21C36 18.756 35.511 17.415 35.097 16.2825C34.752 15.3405 34.5 14.6355 34.5 13.5C34.5 11.94 35.0835 10.5855 35.7195 9.303C36.702 7.326 35.2335 5.25 33.1695 5.25C32.4735 5.25 31.7745 5.2125 31.08 5.271ZM15.2205 8.265C15.2183 8.26009 15.2163 8.25508 15.2145 8.25C15.8205 8.25 16.4265 8.214 17.028 8.304C17.5644 8.38638 18.0908 8.52464 18.5985 8.7165C19.8585 9.1905 21.4575 10.14 22.752 12.0825L24 13.9545L25.248 12.0825C26.5425 10.14 28.14 9.1905 29.403 8.7165C30.066 8.4675 30.7935 8.2695 31.509 8.25H32.895C32.2545 9.5655 31.5 11.352 31.5 13.5C31.5 15.1815 31.9095 16.302 32.2695 17.286L32.2785 17.3115V17.3145C32.6535 18.339 33 19.2855 33 21C33 22.701 32.6565 24.0705 31.599 25.062C30.5055 26.088 28.341 27 24 27C19.659 27 17.4945 26.088 16.401 25.062C15.3435 24.0705 15 22.701 15 21C15 19.722 15.2985 18.825 15.6705 17.733L15.6825 17.697C16.0575 16.593 16.5 15.2955 16.5 13.5C16.5 11.391 15.864 9.63 15.2205 8.265Z" fill="#A82542"/>
</g>
</svg>
