<svg width="49" height="48" viewBox="0 0 49 48" fill="none" xmlns="http://www.w3.org/2000/svg">
<g id="mdi:hotel-outline">
<path id="Vector" d="M14.5 28C17.82 28 20.5 25.32 20.5 22C20.5 18.68 17.82 16 14.5 16C11.18 16 8.5 18.68 8.5 22C8.5 25.32 11.18 28 14.5 28ZM14.5 20C15.6 20 16.5 20.9 16.5 22C16.5 23.1 15.6 24 14.5 24C13.4 24 12.5 23.1 12.5 22C12.5 20.9 13.4 20 14.5 20ZM38.5 14H22.5V30H6.5V10H2.5V40H6.5V34H42.5V40H46.5V22C46.5 17.58 42.92 14 38.5 14ZM42.5 30H26.5V18H38.5C40.7 18 42.5 19.8 42.5 22V30Z" fill="#A82542"/>
</g>
</svg>
