<svg width="48" height="48" viewBox="0 0 48 48" fill="none" xmlns="http://www.w3.org/2000/svg">
<g id="fluent-mdl2:coupon">
<path id="Vector" d="M14.625 19.5C14.625 20.0625 14.5156 20.5938 14.2969 21.0938C14.0781 21.5938 13.7812 22.0312 13.4062 22.4062C13.0312 22.7812 12.5938 23.0781 12.0938 23.2969C11.5938 23.5156 11.0625 23.625 10.5 23.625C9.9375 23.625 9.40625 23.5156 8.90625 23.2969C8.40625 23.0781 7.96875 22.7812 7.59375 22.4062C7.21875 22.0312 6.92188 21.5938 6.70312 21.0938C6.48438 20.5938 6.375 20.0625 6.375 19.5C6.375 18.9375 6.48438 18.4062 6.70312 17.9062C6.92188 17.4062 7.21875 16.9688 7.59375 16.5938C7.96875 16.2188 8.40625 15.9219 8.90625 15.7031C9.40625 15.4844 9.9375 15.375 10.5 15.375C11.0625 15.375 11.5938 15.4844 12.0938 15.7031C12.5938 15.9219 13.0312 16.2188 13.4062 16.5938C13.7812 16.9688 14.0781 17.4062 14.2969 17.9062C14.5156 18.4062 14.625 18.9375 14.625 19.5ZM10.5 21.375C11.0156 21.375 11.4531 21.1953 11.8125 20.8359C12.1719 20.4766 12.3594 20.0312 12.375 19.5C12.375 18.9844 12.1953 18.5469 11.8359 18.1875C11.4766 17.8281 11.0312 17.6406 10.5 17.625C9.98438 17.625 9.54688 17.8047 9.1875 18.1641C8.82812 18.5234 8.64062 18.9688 8.625 19.5C8.625 20.0156 8.80469 20.4531 9.16406 20.8125C9.52344 21.1719 9.96875 21.3594 10.5 21.375ZM22.5 24.375C23.0625 24.375 23.5938 24.4844 24.0938 24.7031C24.5938 24.9219 25.0312 25.2188 25.4062 25.5938C25.7812 25.9688 26.0781 26.4062 26.2969 26.9062C26.5156 27.4062 26.625 27.9375 26.625 28.5C26.625 29.0625 26.5156 29.5938 26.2969 30.0938C26.0781 30.5938 25.7812 31.0312 25.4062 31.4062C25.0312 31.7812 24.5938 32.0781 24.0938 32.2969C23.5938 32.5156 23.0625 32.625 22.5 32.625C21.9375 32.625 21.4062 32.5156 20.9062 32.2969C20.4062 32.0781 19.9688 31.7812 19.5938 31.4062C19.2188 31.0312 18.9219 30.5938 18.7031 30.0938C18.4844 29.5938 18.375 29.0625 18.375 28.5C18.375 27.9375 18.4844 27.4062 18.7031 26.9062C18.9219 26.4062 19.2188 25.9688 19.5938 25.5938C19.9688 25.2188 20.4062 24.9219 20.9062 24.7031C21.4062 24.4844 21.9375 24.375 22.5 24.375ZM22.5 30.375C23.0156 30.375 23.4531 30.1953 23.8125 29.8359C24.1719 29.4766 24.3594 29.0312 24.375 28.5C24.375 27.9844 24.1953 27.5469 23.8359 27.1875C23.4766 26.8281 23.0312 26.6406 22.5 26.625C21.9844 26.625 21.5469 26.8047 21.1875 27.1641C20.8281 27.5234 20.6406 27.9688 20.625 28.5C20.625 29.0156 20.8047 29.4531 21.1641 29.8125C21.5234 30.1719 21.9688 30.3594 22.5 30.375ZM19.7344 15H22.2656L13.2656 33H10.7344L19.7344 15ZM33 9L48 24L33 39H0V9H33ZM31.7578 36L43.7578 24L31.7578 12H3V36H31.7578ZM36 22.5C36.4062 22.5 36.7578 22.6484 37.0547 22.9453C37.3516 23.2422 37.5 23.5938 37.5 24C37.5 24.4062 37.3516 24.7578 37.0547 25.0547C36.7578 25.3516 36.4062 25.5 36 25.5C35.5938 25.5 35.2422 25.3516 34.9453 25.0547C34.6484 24.7578 34.5 24.4062 34.5 24C34.5 23.5938 34.6484 23.2422 34.9453 22.9453C35.2422 22.6484 35.5938 22.5 36 22.5Z" fill="#A82542"/>
</g>
</svg>
