<svg width="48" height="48" viewBox="0 0 48 48" fill="none" xmlns="http://www.w3.org/2000/svg">
<g id="iconoir:puzzle">
<path id="Vector" d="M8 28V36.8C8 37.1183 8.12643 37.4235 8.35147 37.6485C8.57652 37.8736 8.88174 38 9.2 38H20M38 28V36.8C38 37.1183 37.8736 37.4235 37.6485 37.6485C37.4235 37.8736 37.1183 38 36.8 38H28M28 10H36.8C37.1183 10 37.4235 10.1264 37.6485 10.3515C37.8736 10.5765 38 10.8817 38 11.2V20M8 20V11.2C8 10.8817 8.12643 10.5765 8.35147 10.3515C8.57652 10.1264 8.88174 10 9.2 10H20M28 38V40C28 41.0609 27.5786 42.0783 26.8284 42.8284C26.0783 43.5786 25.0609 44 24 44C22.9391 44 21.9217 43.5786 21.1716 42.8284C20.4214 42.0783 20 41.0609 20 40V38M8 20H10C11.0609 20 12.0783 20.4214 12.8284 21.1716C13.5786 21.9217 14 22.9391 14 24C14 25.0609 13.5786 26.0783 12.8284 26.8284C12.0783 27.5786 11.0609 28 10 28H8M38 20H40C41.0609 20 42.0783 20.4214 42.8284 21.1716C43.5786 21.9217 44 22.9391 44 24C44 25.0609 43.5786 26.0783 42.8284 26.8284C42.0783 27.5786 41.0609 28 40 28H38M28 10V8C28 6.93913 27.5786 5.92172 26.8284 5.17157C26.0783 4.42143 25.0609 4 24 4C22.9391 4 21.9217 4.42143 21.1716 5.17157C20.4214 5.92172 20 6.93913 20 8V10" stroke="#A82542" stroke-width="3" stroke-linecap="round" stroke-linejoin="round"/>
</g>
</svg>
